<?xml version="1.0" encoding="UTF-8" standalone="no"?>
<svg
   version="1.1"
   width="430.36267"
   height="144.27875"
   id="svg2"
   sodipodi:docname="banner.svg"
   inkscape:version="1.1.1 (3bf5ae0d25, 2021-09-20)"
   xmlns:inkscape="http://www.inkscape.org/namespaces/inkscape"
   xmlns:sodipodi="http://sodipodi.sourceforge.net/DTD/sodipodi-0.dtd"
   xmlns="http://www.w3.org/2000/svg"
   xmlns:svg="http://www.w3.org/2000/svg"
   xmlns:rdf="http://www.w3.org/1999/02/22-rdf-syntax-ns#"
   xmlns:cc="http://creativecommons.org/ns#"
   xmlns:dc="http://purl.org/dc/elements/1.1/">
  <sodipodi:namedview
     pagecolor="#ffffff"
     bordercolor="#666666"
     borderopacity="1"
     objecttolerance="10"
     gridtolerance="10"
     guidetolerance="10"
     inkscape:pageopacity="0"
     inkscape:pageshadow="2"
     inkscape:window-width="1920"
     inkscape:window-height="1017"
     id="namedview28"
     showgrid="false"
     inkscape:zoom="0.9409836"
     inkscape:cx="224.76481"
     inkscape:cy="77.047039"
     inkscape:window-x="-8"
     inkscape:window-y="1072"
     inkscape:window-maximized="1"
     inkscape:current-layer="svg2"
     showguides="true"
     inkscape:guide-bbox="true"
     inkscape:pagecheckerboard="1"
     fit-margin-top="0"
     fit-margin-left="0"
     fit-margin-right="0"
     fit-margin-bottom="0" />
  <metadata
     id="metadata4">
    <rdf:RDF>
      <cc:Work
         rdf:about="">
        <dc:format>image/svg+xml</dc:format>
        <dc:type
           rdf:resource="http://purl.org/dc/dcmitype/StillImage" />
      </cc:Work>
    </rdf:RDF>
  </metadata>
  <defs
     id="defs6">
    <inkscape:path-effect
       effect="skeletal"
       id="path-effect9609"
       is_visible="true"
       lpeversion="1"
       pattern="M 0,18.867925 C 0,8.4528302 8.4528302,0 18.867925,0 c 10.415094,0 18.867924,8.4528302 18.867924,18.867925 0,10.415094 -8.45283,18.867924 -18.867924,18.867924 C 8.4528302,37.735849 0,29.283019 0,18.867925 Z"
       copytype="single_stretched"
       prop_scale="1"
       scale_y_rel="false"
       spacing="0"
       normal_offset="0"
       tang_offset="0"
       prop_units="false"
       vertical_pattern="false"
       hide_knot="false"
       fuse_tolerance="0" />
    <inkscape:path-effect
       effect="skeletal"
       id="path-effect9412"
       is_visible="true"
       lpeversion="1"
       pattern="M 0,18.867925 C 0,8.4528302 8.4528302,0 18.867925,0 c 10.415094,0 18.867924,8.4528302 18.867924,18.867925 0,10.415094 -8.45283,18.867924 -18.867924,18.867924 C 8.4528302,37.735849 0,29.283019 0,18.867925 Z"
       copytype="single_stretched"
       prop_scale="1"
       scale_y_rel="false"
       spacing="0"
       normal_offset="0"
       tang_offset="0"
       prop_units="false"
       vertical_pattern="false"
       hide_knot="false"
       fuse_tolerance="0" />
    <inkscape:path-effect
       effect="skeletal"
       id="path-effect8639"
       is_visible="true"
       lpeversion="1"
       pattern="M 0,18.867925 C 0,8.4528302 8.4528302,0 18.867925,0 c 10.415094,0 18.867924,8.4528302 18.867924,18.867925 0,10.415094 -8.45283,18.867924 -18.867924,18.867924 C 8.4528302,37.735849 0,29.283019 0,18.867925 Z"
       copytype="single_stretched"
       prop_scale="1"
       scale_y_rel="false"
       spacing="0"
       normal_offset="0"
       tang_offset="0"
       prop_units="false"
       vertical_pattern="false"
       hide_knot="false"
       fuse_tolerance="0" />
    <marker
       style="overflow:visible"
       id="marker8410"
       refX="0"
       refY="0"
       orient="auto"
       inkscape:stockid="DotS"
       inkscape:isstock="true">
      <path
         transform="matrix(0.2,0,0,0.2,1.48,0.2)"
         style="fill:context-stroke;fill-rule:evenodd;stroke:context-stroke;stroke-width:1pt"
         d="m -2.5,-1 c 0,2.76 -2.24,5 -5,5 -2.76,0 -5,-2.24 -5,-5 0,-2.76 2.24,-5 5,-5 2.76,0 5,2.24 5,5 z"
         id="path8408" />
    </marker>
    <marker
       style="overflow:visible"
       id="DotS"
       refX="0"
       refY="0"
       orient="auto"
       inkscape:stockid="DotS"
       inkscape:isstock="true">
      <path
         transform="matrix(0.2,0,0,0.2,1.48,0.2)"
         style="fill:context-stroke;fill-rule:evenodd;stroke:context-stroke;stroke-width:1pt"
         d="m -2.5,-1 c 0,2.76 -2.24,5 -5,5 -2.76,0 -5,-2.24 -5,-5 0,-2.76 2.24,-5 5,-5 2.76,0 5,2.24 5,5 z"
         id="path7732" />
    </marker>
    <marker
       style="overflow:visible"
       id="DotL"
       refX="0"
       refY="0"
       orient="auto"
       inkscape:stockid="DotL"
       inkscape:isstock="true">
      <path
         transform="matrix(0.8,0,0,0.8,5.92,0.8)"
         style="fill:context-stroke;fill-rule:evenodd;stroke:context-stroke;stroke-width:1pt"
         d="m -2.5,-1 c 0,2.76 -2.24,5 -5,5 -2.76,0 -5,-2.24 -5,-5 0,-2.76 2.24,-5 5,-5 2.76,0 5,2.24 5,5 z"
         id="path7726" />
    </marker>
    <marker
       style="overflow:visible"
       id="Arrow1Lstart"
       refX="0"
       refY="0"
       orient="auto"
       inkscape:stockid="Arrow1Lstart"
       inkscape:isstock="true">
      <path
         transform="matrix(0.8,0,0,0.8,10,0)"
         style="fill:context-stroke;fill-rule:evenodd;stroke:context-stroke;stroke-width:1pt"
         d="M 0,0 5,-5 -12.5,0 5,5 Z"
         id="path7665" />
    </marker>
    <clipPath
       id="clipPath8">
      <path
         d="M 76,2 V 48 H 54 V 71 H 35.580737 c -0.07818,0.665694 -0.141485,1.332869 -0.205737,2 -1.151162,12.530963 1.036422,24.087546 6.0625,33.96875 L 43.125,110 c 1.011403,1.81678 2.191241,3.52297 3.4375,5.1875 1.244725,1.66248 1.685716,2.58262 2.46875,3.6875 C 62.319911,133.81083 82.129473,141 105,141 155.64836,141 198.63299,118.56201 217.65625,68.15625 231.15302,69.54122 244.09968,66.080358 250,54.5625 240.60137,49.138835 228.52163,50.877226 221.5625,54.375 L 240,2 168,48 H 145 V 2 Z"
         id="path10"
         inkscape:connector-curvature="0" />
    </clipPath>
    <clipPath
       id="clipPath8-5">
      <path
         inkscape:connector-curvature="0"
         d="M 76,2 V 48 H 54 V 71 H 35.580737 c -0.07818,0.665694 -0.141485,1.332869 -0.205737,2 -1.151162,12.530963 1.036422,24.087546 6.0625,33.96875 L 43.125,110 c 1.011403,1.81678 2.191241,3.52297 3.4375,5.1875 1.244725,1.66248 1.685716,2.58262 2.46875,3.6875 C 62.319911,133.81083 82.129473,141 105,141 155.64836,141 198.63299,118.56201 217.65625,68.15625 231.15302,69.54122 244.09968,66.080358 250,54.5625 240.60137,49.138835 228.52163,50.877226 221.5625,54.375 L 240,2 168,48 H 145 V 2 Z"
         id="path10-9" />
    </clipPath>
    <clipPath
       id="clipPath4536">
      <path
         inkscape:connector-curvature="0"
         d="M 76,2 V 48 H 54 V 71 H 35.580737 c -0.07818,0.665694 -0.141485,1.332869 -0.205737,2 -1.151162,12.530963 1.036422,24.087546 6.0625,33.96875 L 43.125,110 c 1.011403,1.81678 2.191241,3.52297 3.4375,5.1875 1.244725,1.66248 1.685716,2.58262 2.46875,3.6875 C 62.319911,133.81083 82.129473,141 105,141 155.64836,141 198.63299,118.56201 217.65625,68.15625 231.15302,69.54122 244.09968,66.080358 250,54.5625 240.60137,49.138835 228.52163,50.877226 221.5625,54.375 L 240,2 168,48 H 145 V 2 Z"
         id="path4534" />
    </clipPath>
    <clipPath
       id="clipPath4540">
      <path
         inkscape:connector-curvature="0"
         d="M 76,2 V 48 H 54 V 71 H 35.580737 c -0.07818,0.665694 -0.141485,1.332869 -0.205737,2 -1.151162,12.530963 1.036422,24.087546 6.0625,33.96875 L 43.125,110 c 1.011403,1.81678 2.191241,3.52297 3.4375,5.1875 1.244725,1.66248 1.685716,2.58262 2.46875,3.6875 C 62.319911,133.81083 82.129473,141 105,141 155.64836,141 198.63299,118.56201 217.65625,68.15625 231.15302,69.54122 244.09968,66.080358 250,54.5625 240.60137,49.138835 228.52163,50.877226 221.5625,54.375 L 240,2 168,48 H 145 V 2 Z"
         id="path4538" />
    </clipPath>
    <clipPath
       id="clipPath4544">
      <path
         inkscape:connector-curvature="0"
         d="M 76,2 V 48 H 54 V 71 H 35.580737 c -0.07818,0.665694 -0.141485,1.332869 -0.205737,2 -1.151162,12.530963 1.036422,24.087546 6.0625,33.96875 L 43.125,110 c 1.011403,1.81678 2.191241,3.52297 3.4375,5.1875 1.244725,1.66248 1.685716,2.58262 2.46875,3.6875 C 62.319911,133.81083 82.129473,141 105,141 155.64836,141 198.63299,118.56201 217.65625,68.15625 231.15302,69.54122 244.09968,66.080358 250,54.5625 240.60137,49.138835 228.52163,50.877226 221.5625,54.375 L 240,2 168,48 H 145 V 2 Z"
         id="path4542" />
    </clipPath>
    <clipPath
       id="clipPath4548">
      <path
         inkscape:connector-curvature="0"
         d="M 76,2 V 48 H 54 V 71 H 35.580737 c -0.07818,0.665694 -0.141485,1.332869 -0.205737,2 -1.151162,12.530963 1.036422,24.087546 6.0625,33.96875 L 43.125,110 c 1.011403,1.81678 2.191241,3.52297 3.4375,5.1875 1.244725,1.66248 1.685716,2.58262 2.46875,3.6875 C 62.319911,133.81083 82.129473,141 105,141 155.64836,141 198.63299,118.56201 217.65625,68.15625 231.15302,69.54122 244.09968,66.080358 250,54.5625 240.60137,49.138835 228.52163,50.877226 221.5625,54.375 L 240,2 168,48 H 145 V 2 Z"
         id="path4546" />
    </clipPath>
    <clipPath
       id="clipPath8-5-9">
      <path
         inkscape:connector-curvature="0"
         d="M 76,2 V 48 H 54 V 71 H 35.580737 c -0.07818,0.665694 -0.141485,1.332869 -0.205737,2 -1.151162,12.530963 1.036422,24.087546 6.0625,33.96875 L 43.125,110 c 1.011403,1.81678 2.191241,3.52297 3.4375,5.1875 1.244725,1.66248 1.685716,2.58262 2.46875,3.6875 C 62.319911,133.81083 82.129473,141 105,141 155.64836,141 198.63299,118.56201 217.65625,68.15625 231.15302,69.54122 244.09968,66.080358 250,54.5625 240.60137,49.138835 228.52163,50.877226 221.5625,54.375 L 240,2 168,48 H 145 V 2 Z"
         id="path10-9-1" />
    </clipPath>
  </defs>
  <rect
     style="fill:#f2f1ef;fill-opacity:1;stroke:none;stroke-width:10.8987;stroke-linecap:round;stroke-linejoin:round;stroke-miterlimit:4;stroke-dasharray:none;stroke-opacity:1"
     id="rect11065"
     width="295.85193"
     height="140.27875"
     x="132.51074"
     y="2.0000057"
     inkscape:export-filename="T:\hdl\containers\doc\img\icon.png"
     inkscape:export-xdpi="266.47906"
     inkscape:export-ydpi="266.47906" />
  <path
     style="fill:none;stroke:#37342d;stroke-width:14;stroke-linecap:round;stroke-linejoin:miter;stroke-miterlimit:2;stroke-dasharray:none;stroke-opacity:1"
     d="m 7,137.13919 112.15465,6e-5"
     id="path8574"
     sodipodi:nodetypes="cc"
     inkscape:export-filename="T:\hdl\containers\doc\img\icon.png"
     inkscape:export-xdpi="266.47906"
     inkscape:export-ydpi="266.47906" />
  <path
     style="fill:#4bd7c8;fill-opacity:1;stroke-width:1.71475"
     id="path24-1-1"
     d="M 45.992333,13.12902 H 79.974454 V 47.112 H 45.992333 Z"
     inkscape:connector-curvature="0"
     inkscape:export-xdpi="266.47906"
     inkscape:export-ydpi="266.47906"
     inkscape:export-filename="T:\hdl\containers\doc\img\icon.png" />
  <path
     style="fill:#ec563c;fill-opacity:1;stroke-width:1.71475"
     id="path4817-5"
     d="M 6.782878,125.52932 H 40.764953 V 91.54816 H 6.782878 Z"
     inkscape:connector-curvature="0"
     inkscape:export-xdpi="266.47906"
     inkscape:export-ydpi="266.47906"
     inkscape:export-filename="T:\hdl\containers\doc\img\icon.png" />
  <path
     style="fill:#4bd7c8;fill-opacity:1;stroke-width:1.71475"
     id="path4819-3"
     d="M 6.782878,86.32084 H 40.764953 V 52.33788 H 6.782878 Z"
     inkscape:connector-curvature="0"
     inkscape:export-xdpi="266.47906"
     inkscape:export-ydpi="266.47906"
     inkscape:export-filename="T:\hdl\containers\doc\img\icon.png" />
  <path
     inkscape:connector-curvature="0"
     d="M 45.992333,52.33952 H 79.974454 V 86.32068 H 45.992333 Z"
     id="path4757-8"
     style="fill:#ec563c;fill-opacity:1;stroke-width:1.71475"
     inkscape:export-xdpi="266.47906"
     inkscape:export-ydpi="266.47906"
     inkscape:export-filename="T:\hdl\containers\doc\img\icon.png" />
  <path
     inkscape:connector-curvature="0"
     d="m 45.992333,91.548 h 33.982121 v 33.98296 H 45.992333 Z"
     id="path4759-3"
     style="fill:#4bd7c8;fill-opacity:1;stroke-width:1.71475"
     inkscape:export-xdpi="266.47906"
     inkscape:export-ydpi="266.47906"
     inkscape:export-filename="T:\hdl\containers\doc\img\icon.png" />
  <path
     inkscape:connector-curvature="0"
     d="M 85.201814,125.52932 H 119.18391 V 91.54816 H 85.201814 Z"
     id="path4827-6"
     style="fill:#ec563c;fill-opacity:1;stroke-width:1.71475"
     inkscape:export-xdpi="266.47906"
     inkscape:export-ydpi="266.47906"
     inkscape:export-filename="T:\hdl\containers\doc\img\icon.png" />
  <path
     style="fill:none;stroke:#f2f1ef;stroke-width:6;stroke-linecap:round;stroke-linejoin:miter;stroke-miterlimit:2;stroke-dasharray:none;stroke-opacity:1"
     d="m 7,137.13919 112.15465,6e-5"
     id="path7663"
     sodipodi:nodetypes="cc"
     inkscape:export-filename="T:\hdl\containers\doc\img\icon.png"
     inkscape:export-xdpi="266.47906"
     inkscape:export-ydpi="266.47906" />
  <path
     style="fill:none;fill-opacity:1;stroke:#37342d;stroke-width:4;stroke-linecap:round;stroke-linejoin:miter;stroke-miterlimit:4;stroke-dasharray:none;stroke-opacity:1"
     d="m 172.36267,2 h -39.85192 v 140.27874 h 39.85192"
     id="path9751"
     inkscape:export-filename="T:\hdl\containers\doc\img\icon.png"
     inkscape:export-xdpi="266.47906"
     inkscape:export-ydpi="266.47906" />
  <path
     style="fill:none;stroke:#37342d;stroke-width:4;stroke-linecap:round;stroke-linejoin:miter;stroke-miterlimit:4;stroke-dasharray:none;stroke-opacity:0.5"
     d="m 154.25204,13.64548 h -10.3615 v 15.67508"
     id="path10238"
     inkscape:export-filename="T:\hdl\containers\doc\img\icon.png"
     inkscape:export-xdpi="266.47906"
     inkscape:export-ydpi="266.47906" />
  <path
     style="fill:none;stroke:#37342d;stroke-width:4;stroke-linecap:round;stroke-linejoin:miter;stroke-miterlimit:4;stroke-dasharray:none;stroke-opacity:0.5"
     d="m 154.25204,130.99216 h -10.3615 v -15.67508"
     id="path10499"
     inkscape:export-filename="T:\hdl\containers\doc\img\icon.png"
     inkscape:export-xdpi="266.47906"
     inkscape:export-ydpi="266.47906" />
  <path
     style="fill:none;stroke:#37342d;stroke-width:4;stroke-linecap:round;stroke-linejoin:miter;stroke-miterlimit:4;stroke-dasharray:none;stroke-opacity:0.5"
     d="m 166.90143,25.64548 v 93.51916"
     id="path10536"
     inkscape:export-filename="T:\hdl\containers\doc\img\icon.png"
     inkscape:export-xdpi="266.47906"
     inkscape:export-ydpi="266.47906" />
  <path
     style="fill:none;stroke:#37342d;stroke-width:4;stroke-linecap:round;stroke-linejoin:miter;stroke-miterlimit:4;stroke-dasharray:none;stroke-opacity:0.5"
     d="M 155.83131,25.51264 V 119.0318"
     id="path10949"
     inkscape:export-filename="T:\hdl\containers\doc\img\icon.png"
     inkscape:export-xdpi="266.47906"
     inkscape:export-ydpi="266.47906" />
  <text
     xml:space="preserve"
     style="font-style:normal;font-weight:normal;font-size:64px;line-height:0.7;font-family:sans-serif;letter-spacing:0px;word-spacing:0px;fill:#000000;fill-opacity:1;stroke:none"
     x="280.69812"
     y="67.607674"
     id="text2006"><tspan
       sodipodi:role="line"
       id="tspan2004"
       x="280.69812"
       y="67.607674"
       style="font-style:normal;font-variant:normal;font-weight:normal;font-stretch:normal;font-size:64px;font-family:Teko;-inkscape-font-specification:Teko;text-align:center;text-anchor:middle">HDL</tspan><tspan
       sodipodi:role="line"
       x="280.69812"
       y="118.24691"
       id="tspan3736"
       style="font-style:normal;font-variant:normal;font-weight:normal;font-stretch:normal;font-size:64px;font-family:Teko;-inkscape-font-specification:Teko;text-align:center;text-anchor:middle">Containers</tspan></text>
  <path
     style="fill:none;fill-opacity:1;stroke:#37342d;stroke-width:4;stroke-linecap:round;stroke-linejoin:miter;stroke-miterlimit:4;stroke-dasharray:none;stroke-opacity:1"
     d="m 388.51075,2 h 39.85192 v 140.27874 h -39.85192"
     id="path9320"
     inkscape:export-filename="T:\hdl\containers\doc\img\icon.png"
     inkscape:export-xdpi="266.47906"
     inkscape:export-ydpi="266.47906" />
  <path
     style="fill:none;stroke:#37342d;stroke-width:4;stroke-linecap:round;stroke-linejoin:miter;stroke-miterlimit:4;stroke-dasharray:none;stroke-opacity:0.5"
     d="m 406.62138,13.64548 h 10.3615 v 15.67508"
     id="path9322"
     inkscape:export-filename="T:\hdl\containers\doc\img\icon.png"
     inkscape:export-xdpi="266.47906"
     inkscape:export-ydpi="266.47906" />
  <path
     style="fill:none;stroke:#37342d;stroke-width:4;stroke-linecap:round;stroke-linejoin:miter;stroke-miterlimit:4;stroke-dasharray:none;stroke-opacity:0.5"
     d="m 406.62138,130.99216 h 10.3615 v -15.67508"
     id="path9324"
     inkscape:export-filename="T:\hdl\containers\doc\img\icon.png"
     inkscape:export-xdpi="266.47906"
     inkscape:export-ydpi="266.47906" />
  <path
     style="fill:none;stroke:#37342d;stroke-width:4;stroke-linecap:round;stroke-linejoin:miter;stroke-miterlimit:4;stroke-dasharray:none;stroke-opacity:0.5"
     d="m 393.97199,25.64548 v 93.51916"
     id="path9326"
     inkscape:export-filename="T:\hdl\containers\doc\img\icon.png"
     inkscape:export-xdpi="266.47906"
     inkscape:export-ydpi="266.47906" />
  <path
     style="fill:none;stroke:#37342d;stroke-width:4;stroke-linecap:round;stroke-linejoin:miter;stroke-miterlimit:4;stroke-dasharray:none;stroke-opacity:0.5"
     d="M 405.04211,25.51264 V 119.0318"
     id="path9328"
     inkscape:export-filename="T:\hdl\containers\doc\img\icon.png"
     inkscape:export-xdpi="266.47906"
     inkscape:export-ydpi="266.47906" />
</svg>
