<?xml version="1.0" encoding="UTF-8" standalone="no"?>
<svg
   version="1.1"
   width="430.36267"
   height="144.27875"
   id="svg2"
   sodipodi:docname="banner_path.svg"
   inkscape:version="1.1.1 (3bf5ae0d25, 2021-09-20)"
   xmlns:inkscape="http://www.inkscape.org/namespaces/inkscape"
   xmlns:sodipodi="http://sodipodi.sourceforge.net/DTD/sodipodi-0.dtd"
   xmlns="http://www.w3.org/2000/svg"
   xmlns:svg="http://www.w3.org/2000/svg"
   xmlns:rdf="http://www.w3.org/1999/02/22-rdf-syntax-ns#"
   xmlns:cc="http://creativecommons.org/ns#"
   xmlns:dc="http://purl.org/dc/elements/1.1/">
  <sodipodi:namedview
     pagecolor="#ffffff"
     bordercolor="#666666"
     borderopacity="1"
     objecttolerance="10"
     gridtolerance="10"
     guidetolerance="10"
     inkscape:pageopacity="0"
     inkscape:pageshadow="2"
     inkscape:window-width="1920"
     inkscape:window-height="1017"
     id="namedview28"
     showgrid="false"
     inkscape:zoom="0.9409836"
     inkscape:cx="224.76481"
     inkscape:cy="77.047039"
     inkscape:window-x="-8"
     inkscape:window-y="1072"
     inkscape:window-maximized="1"
     inkscape:current-layer="text2006"
     showguides="true"
     inkscape:guide-bbox="true"
     inkscape:pagecheckerboard="1"
     fit-margin-top="0"
     fit-margin-left="0"
     fit-margin-right="0"
     fit-margin-bottom="0" />
  <metadata
     id="metadata4">
    <rdf:RDF>
      <cc:Work
         rdf:about="">
        <dc:format>image/svg+xml</dc:format>
        <dc:type
           rdf:resource="http://purl.org/dc/dcmitype/StillImage" />
      </cc:Work>
    </rdf:RDF>
  </metadata>
  <defs
     id="defs6">
    <inkscape:path-effect
       effect="skeletal"
       id="path-effect9609"
       is_visible="true"
       lpeversion="1"
       pattern="M 0,18.867925 C 0,8.4528302 8.4528302,0 18.867925,0 c 10.415094,0 18.867924,8.4528302 18.867924,18.867925 0,10.415094 -8.45283,18.867924 -18.867924,18.867924 C 8.4528302,37.735849 0,29.283019 0,18.867925 Z"
       copytype="single_stretched"
       prop_scale="1"
       scale_y_rel="false"
       spacing="0"
       normal_offset="0"
       tang_offset="0"
       prop_units="false"
       vertical_pattern="false"
       hide_knot="false"
       fuse_tolerance="0" />
    <inkscape:path-effect
       effect="skeletal"
       id="path-effect9412"
       is_visible="true"
       lpeversion="1"
       pattern="M 0,18.867925 C 0,8.4528302 8.4528302,0 18.867925,0 c 10.415094,0 18.867924,8.4528302 18.867924,18.867925 0,10.415094 -8.45283,18.867924 -18.867924,18.867924 C 8.4528302,37.735849 0,29.283019 0,18.867925 Z"
       copytype="single_stretched"
       prop_scale="1"
       scale_y_rel="false"
       spacing="0"
       normal_offset="0"
       tang_offset="0"
       prop_units="false"
       vertical_pattern="false"
       hide_knot="false"
       fuse_tolerance="0" />
    <inkscape:path-effect
       effect="skeletal"
       id="path-effect8639"
       is_visible="true"
       lpeversion="1"
       pattern="M 0,18.867925 C 0,8.4528302 8.4528302,0 18.867925,0 c 10.415094,0 18.867924,8.4528302 18.867924,18.867925 0,10.415094 -8.45283,18.867924 -18.867924,18.867924 C 8.4528302,37.735849 0,29.283019 0,18.867925 Z"
       copytype="single_stretched"
       prop_scale="1"
       scale_y_rel="false"
       spacing="0"
       normal_offset="0"
       tang_offset="0"
       prop_units="false"
       vertical_pattern="false"
       hide_knot="false"
       fuse_tolerance="0" />
    <marker
       style="overflow:visible"
       id="marker8410"
       refX="0"
       refY="0"
       orient="auto"
       inkscape:stockid="DotS"
       inkscape:isstock="true">
      <path
         transform="matrix(0.2,0,0,0.2,1.48,0.2)"
         style="fill:context-stroke;fill-rule:evenodd;stroke:context-stroke;stroke-width:1pt"
         d="m -2.5,-1 c 0,2.76 -2.24,5 -5,5 -2.76,0 -5,-2.24 -5,-5 0,-2.76 2.24,-5 5,-5 2.76,0 5,2.24 5,5 z"
         id="path8408" />
    </marker>
    <marker
       style="overflow:visible"
       id="DotS"
       refX="0"
       refY="0"
       orient="auto"
       inkscape:stockid="DotS"
       inkscape:isstock="true">
      <path
         transform="matrix(0.2,0,0,0.2,1.48,0.2)"
         style="fill:context-stroke;fill-rule:evenodd;stroke:context-stroke;stroke-width:1pt"
         d="m -2.5,-1 c 0,2.76 -2.24,5 -5,5 -2.76,0 -5,-2.24 -5,-5 0,-2.76 2.24,-5 5,-5 2.76,0 5,2.24 5,5 z"
         id="path7732" />
    </marker>
    <marker
       style="overflow:visible"
       id="DotL"
       refX="0"
       refY="0"
       orient="auto"
       inkscape:stockid="DotL"
       inkscape:isstock="true">
      <path
         transform="matrix(0.8,0,0,0.8,5.92,0.8)"
         style="fill:context-stroke;fill-rule:evenodd;stroke:context-stroke;stroke-width:1pt"
         d="m -2.5,-1 c 0,2.76 -2.24,5 -5,5 -2.76,0 -5,-2.24 -5,-5 0,-2.76 2.24,-5 5,-5 2.76,0 5,2.24 5,5 z"
         id="path7726" />
    </marker>
    <marker
       style="overflow:visible"
       id="Arrow1Lstart"
       refX="0"
       refY="0"
       orient="auto"
       inkscape:stockid="Arrow1Lstart"
       inkscape:isstock="true">
      <path
         transform="matrix(0.8,0,0,0.8,10,0)"
         style="fill:context-stroke;fill-rule:evenodd;stroke:context-stroke;stroke-width:1pt"
         d="M 0,0 5,-5 -12.5,0 5,5 Z"
         id="path7665" />
    </marker>
    <clipPath
       id="clipPath8">
      <path
         d="M 76,2 V 48 H 54 V 71 H 35.580737 c -0.07818,0.665694 -0.141485,1.332869 -0.205737,2 -1.151162,12.530963 1.036422,24.087546 6.0625,33.96875 L 43.125,110 c 1.011403,1.81678 2.191241,3.52297 3.4375,5.1875 1.244725,1.66248 1.685716,2.58262 2.46875,3.6875 C 62.319911,133.81083 82.129473,141 105,141 155.64836,141 198.63299,118.56201 217.65625,68.15625 231.15302,69.54122 244.09968,66.080358 250,54.5625 240.60137,49.138835 228.52163,50.877226 221.5625,54.375 L 240,2 168,48 H 145 V 2 Z"
         id="path10"
         inkscape:connector-curvature="0" />
    </clipPath>
    <clipPath
       id="clipPath8-5">
      <path
         inkscape:connector-curvature="0"
         d="M 76,2 V 48 H 54 V 71 H 35.580737 c -0.07818,0.665694 -0.141485,1.332869 -0.205737,2 -1.151162,12.530963 1.036422,24.087546 6.0625,33.96875 L 43.125,110 c 1.011403,1.81678 2.191241,3.52297 3.4375,5.1875 1.244725,1.66248 1.685716,2.58262 2.46875,3.6875 C 62.319911,133.81083 82.129473,141 105,141 155.64836,141 198.63299,118.56201 217.65625,68.15625 231.15302,69.54122 244.09968,66.080358 250,54.5625 240.60137,49.138835 228.52163,50.877226 221.5625,54.375 L 240,2 168,48 H 145 V 2 Z"
         id="path10-9" />
    </clipPath>
    <clipPath
       id="clipPath4536">
      <path
         inkscape:connector-curvature="0"
         d="M 76,2 V 48 H 54 V 71 H 35.580737 c -0.07818,0.665694 -0.141485,1.332869 -0.205737,2 -1.151162,12.530963 1.036422,24.087546 6.0625,33.96875 L 43.125,110 c 1.011403,1.81678 2.191241,3.52297 3.4375,5.1875 1.244725,1.66248 1.685716,2.58262 2.46875,3.6875 C 62.319911,133.81083 82.129473,141 105,141 155.64836,141 198.63299,118.56201 217.65625,68.15625 231.15302,69.54122 244.09968,66.080358 250,54.5625 240.60137,49.138835 228.52163,50.877226 221.5625,54.375 L 240,2 168,48 H 145 V 2 Z"
         id="path4534" />
    </clipPath>
    <clipPath
       id="clipPath4540">
      <path
         inkscape:connector-curvature="0"
         d="M 76,2 V 48 H 54 V 71 H 35.580737 c -0.07818,0.665694 -0.141485,1.332869 -0.205737,2 -1.151162,12.530963 1.036422,24.087546 6.0625,33.96875 L 43.125,110 c 1.011403,1.81678 2.191241,3.52297 3.4375,5.1875 1.244725,1.66248 1.685716,2.58262 2.46875,3.6875 C 62.319911,133.81083 82.129473,141 105,141 155.64836,141 198.63299,118.56201 217.65625,68.15625 231.15302,69.54122 244.09968,66.080358 250,54.5625 240.60137,49.138835 228.52163,50.877226 221.5625,54.375 L 240,2 168,48 H 145 V 2 Z"
         id="path4538" />
    </clipPath>
    <clipPath
       id="clipPath4544">
      <path
         inkscape:connector-curvature="0"
         d="M 76,2 V 48 H 54 V 71 H 35.580737 c -0.07818,0.665694 -0.141485,1.332869 -0.205737,2 -1.151162,12.530963 1.036422,24.087546 6.0625,33.96875 L 43.125,110 c 1.011403,1.81678 2.191241,3.52297 3.4375,5.1875 1.244725,1.66248 1.685716,2.58262 2.46875,3.6875 C 62.319911,133.81083 82.129473,141 105,141 155.64836,141 198.63299,118.56201 217.65625,68.15625 231.15302,69.54122 244.09968,66.080358 250,54.5625 240.60137,49.138835 228.52163,50.877226 221.5625,54.375 L 240,2 168,48 H 145 V 2 Z"
         id="path4542" />
    </clipPath>
    <clipPath
       id="clipPath4548">
      <path
         inkscape:connector-curvature="0"
         d="M 76,2 V 48 H 54 V 71 H 35.580737 c -0.07818,0.665694 -0.141485,1.332869 -0.205737,2 -1.151162,12.530963 1.036422,24.087546 6.0625,33.96875 L 43.125,110 c 1.011403,1.81678 2.191241,3.52297 3.4375,5.1875 1.244725,1.66248 1.685716,2.58262 2.46875,3.6875 C 62.319911,133.81083 82.129473,141 105,141 155.64836,141 198.63299,118.56201 217.65625,68.15625 231.15302,69.54122 244.09968,66.080358 250,54.5625 240.60137,49.138835 228.52163,50.877226 221.5625,54.375 L 240,2 168,48 H 145 V 2 Z"
         id="path4546" />
    </clipPath>
    <clipPath
       id="clipPath8-5-9">
      <path
         inkscape:connector-curvature="0"
         d="M 76,2 V 48 H 54 V 71 H 35.580737 c -0.07818,0.665694 -0.141485,1.332869 -0.205737,2 -1.151162,12.530963 1.036422,24.087546 6.0625,33.96875 L 43.125,110 c 1.011403,1.81678 2.191241,3.52297 3.4375,5.1875 1.244725,1.66248 1.685716,2.58262 2.46875,3.6875 C 62.319911,133.81083 82.129473,141 105,141 155.64836,141 198.63299,118.56201 217.65625,68.15625 231.15302,69.54122 244.09968,66.080358 250,54.5625 240.60137,49.138835 228.52163,50.877226 221.5625,54.375 L 240,2 168,48 H 145 V 2 Z"
         id="path10-9-1" />
    </clipPath>
  </defs>
  <rect
     style="fill:#f2f1ef;fill-opacity:1;stroke:none;stroke-width:10.8987;stroke-linecap:round;stroke-linejoin:round;stroke-miterlimit:4;stroke-dasharray:none;stroke-opacity:1"
     id="rect11065"
     width="295.85193"
     height="140.27875"
     x="132.51074"
     y="2.0000057"
     inkscape:export-filename="T:\hdl\containers\doc\img\icon.png"
     inkscape:export-xdpi="266.47906"
     inkscape:export-ydpi="266.47906" />
  <path
     style="fill:none;stroke:#37342d;stroke-width:14;stroke-linecap:round;stroke-linejoin:miter;stroke-miterlimit:2;stroke-dasharray:none;stroke-opacity:1"
     d="m 7,137.13919 112.15465,6e-5"
     id="path8574"
     sodipodi:nodetypes="cc"
     inkscape:export-filename="T:\hdl\containers\doc\img\icon.png"
     inkscape:export-xdpi="266.47906"
     inkscape:export-ydpi="266.47906" />
  <path
     style="fill:#4bd7c8;fill-opacity:1;stroke-width:1.71475"
     id="path24-1-1"
     d="M 45.992333,13.12902 H 79.974454 V 47.112 H 45.992333 Z"
     inkscape:connector-curvature="0"
     inkscape:export-xdpi="266.47906"
     inkscape:export-ydpi="266.47906"
     inkscape:export-filename="T:\hdl\containers\doc\img\icon.png" />
  <path
     style="fill:#ec563c;fill-opacity:1;stroke-width:1.71475"
     id="path4817-5"
     d="M 6.782878,125.52932 H 40.764953 V 91.54816 H 6.782878 Z"
     inkscape:connector-curvature="0"
     inkscape:export-xdpi="266.47906"
     inkscape:export-ydpi="266.47906"
     inkscape:export-filename="T:\hdl\containers\doc\img\icon.png" />
  <path
     style="fill:#4bd7c8;fill-opacity:1;stroke-width:1.71475"
     id="path4819-3"
     d="M 6.782878,86.32084 H 40.764953 V 52.33788 H 6.782878 Z"
     inkscape:connector-curvature="0"
     inkscape:export-xdpi="266.47906"
     inkscape:export-ydpi="266.47906"
     inkscape:export-filename="T:\hdl\containers\doc\img\icon.png" />
  <path
     inkscape:connector-curvature="0"
     d="M 45.992333,52.33952 H 79.974454 V 86.32068 H 45.992333 Z"
     id="path4757-8"
     style="fill:#ec563c;fill-opacity:1;stroke-width:1.71475"
     inkscape:export-xdpi="266.47906"
     inkscape:export-ydpi="266.47906"
     inkscape:export-filename="T:\hdl\containers\doc\img\icon.png" />
  <path
     inkscape:connector-curvature="0"
     d="m 45.992333,91.548 h 33.982121 v 33.98296 H 45.992333 Z"
     id="path4759-3"
     style="fill:#4bd7c8;fill-opacity:1;stroke-width:1.71475"
     inkscape:export-xdpi="266.47906"
     inkscape:export-ydpi="266.47906"
     inkscape:export-filename="T:\hdl\containers\doc\img\icon.png" />
  <path
     inkscape:connector-curvature="0"
     d="M 85.201814,125.52932 H 119.18391 V 91.54816 H 85.201814 Z"
     id="path4827-6"
     style="fill:#ec563c;fill-opacity:1;stroke-width:1.71475"
     inkscape:export-xdpi="266.47906"
     inkscape:export-ydpi="266.47906"
     inkscape:export-filename="T:\hdl\containers\doc\img\icon.png" />
  <path
     style="fill:none;stroke:#f2f1ef;stroke-width:6;stroke-linecap:round;stroke-linejoin:miter;stroke-miterlimit:2;stroke-dasharray:none;stroke-opacity:1"
     d="m 7,137.13919 112.15465,6e-5"
     id="path7663"
     sodipodi:nodetypes="cc"
     inkscape:export-filename="T:\hdl\containers\doc\img\icon.png"
     inkscape:export-xdpi="266.47906"
     inkscape:export-ydpi="266.47906" />
  <path
     style="fill:none;fill-opacity:1;stroke:#37342d;stroke-width:4;stroke-linecap:round;stroke-linejoin:miter;stroke-miterlimit:4;stroke-dasharray:none;stroke-opacity:1"
     d="m 172.36267,2 h -39.85192 v 140.27874 h 39.85192"
     id="path9751"
     inkscape:export-filename="T:\hdl\containers\doc\img\icon.png"
     inkscape:export-xdpi="266.47906"
     inkscape:export-ydpi="266.47906" />
  <path
     style="fill:none;stroke:#37342d;stroke-width:4;stroke-linecap:round;stroke-linejoin:miter;stroke-miterlimit:4;stroke-dasharray:none;stroke-opacity:0.5"
     d="m 154.25204,13.64548 h -10.3615 v 15.67508"
     id="path10238"
     inkscape:export-filename="T:\hdl\containers\doc\img\icon.png"
     inkscape:export-xdpi="266.47906"
     inkscape:export-ydpi="266.47906" />
  <path
     style="fill:none;stroke:#37342d;stroke-width:4;stroke-linecap:round;stroke-linejoin:miter;stroke-miterlimit:4;stroke-dasharray:none;stroke-opacity:0.5"
     d="m 154.25204,130.99216 h -10.3615 v -15.67508"
     id="path10499"
     inkscape:export-filename="T:\hdl\containers\doc\img\icon.png"
     inkscape:export-xdpi="266.47906"
     inkscape:export-ydpi="266.47906" />
  <path
     style="fill:none;stroke:#37342d;stroke-width:4;stroke-linecap:round;stroke-linejoin:miter;stroke-miterlimit:4;stroke-dasharray:none;stroke-opacity:0.5"
     d="m 166.90143,25.64548 v 93.51916"
     id="path10536"
     inkscape:export-filename="T:\hdl\containers\doc\img\icon.png"
     inkscape:export-xdpi="266.47906"
     inkscape:export-ydpi="266.47906" />
  <path
     style="fill:none;stroke:#37342d;stroke-width:4;stroke-linecap:round;stroke-linejoin:miter;stroke-miterlimit:4;stroke-dasharray:none;stroke-opacity:0.5"
     d="M 155.83131,25.51264 V 119.0318"
     id="path10949"
     inkscape:export-filename="T:\hdl\containers\doc\img\icon.png"
     inkscape:export-xdpi="266.47906"
     inkscape:export-ydpi="266.47906" />
  <g
     aria-label="HDL
Containers"
     id="text2006"
     style="font-size:64px;line-height:0.7;letter-spacing:0px;word-spacing:0px">
    <path
       d="m 262.13809,27.543674 h 5.76 v 40.064 h -5.76 v -17.6 h -8.512 v 17.6 h -5.76 v -40.064 h 5.76 v 17.792 h 8.512 z"
       style="font-family:Teko;-inkscape-font-specification:Teko;text-align:center;text-anchor:middle"
       id="path943" />
    <path
       d="m 274.68207,27.543674 h 13.952 q 5.952,0 5.952,5.632 v 28.8 q 0,5.632 -5.952,5.632 h -13.952 z m 14.08,33.664 v -27.264 q 0,-1.152 -0.384,-1.472 -0.384,-0.384 -1.536,-0.384 h -6.336 v 30.976 h 6.336 q 1.152,0 1.536,-0.32 0.384,-0.384 0.384,-1.536 z"
       style="font-family:Teko;-inkscape-font-specification:Teko;text-align:center;text-anchor:middle"
       id="path945" />
    <path
       d="m 306.68212,62.935674 h 9.92 v 4.672 h -15.68 v -40.064 h 5.76 z"
       style="font-family:Teko;-inkscape-font-specification:Teko;text-align:center;text-anchor:middle"
       id="path947" />
    <path
       d="m 201.33806,90.726909 h -5.888 v -6.144 q 0,-1.152 -0.384,-1.472 -0.32,-0.384 -1.472,-0.384 h -3.264 q -1.152,0 -1.536,0.384 -0.384,0.32 -0.384,1.472 v 27.328001 q 0,1.152 0.384,1.536 0.384,0.32 1.536,0.32 h 3.264 q 1.152,0 1.472,-0.32 0.384,-0.384 0.384,-1.536 v -6.08 h 5.888 v 6.784 q 0,5.696 -6.016,5.696 h -6.784 q -5.952,0 -5.952,-5.696 V 83.814909 q 0,-5.632 5.952,-5.632 h 6.784 q 6.016,0 6.016,5.632 z"
       style="font-family:Teko;-inkscape-font-specification:Teko;text-align:center;text-anchor:middle"
       id="path949" />
    <path
       d="m 212.09012,87.014909 h 6.848 q 5.952,0 5.952,5.696 v 19.904001 q 0,5.632 -5.952,5.632 h -6.848 q -5.888,0 -5.888,-5.632 V 92.710909 q 0,-5.696 5.888,-5.696 z m 7.104,24.768001 V 93.478909 q 0,-1.152 -0.384,-1.536 -0.384,-0.384 -1.536,-0.384 h -3.52 q -1.152,0 -1.536,0.384 -0.32,0.384 -0.32,1.536 v 18.304001 q 0,1.152 0.32,1.536 0.384,0.384 1.536,0.384 h 3.52 q 1.152,0 1.536,-0.384 0.384,-0.384 0.384,-1.536 z"
       style="font-family:Teko;-inkscape-font-specification:Teko;text-align:center;text-anchor:middle"
       id="path951" />
    <path
       d="m 239.93017,87.014909 h 2.24 q 5.824,0 5.824,5.696 v 25.536001 h -5.76 V 93.542909 q 0,-1.152 -0.384,-1.472 -0.384,-0.384 -1.536,-0.384 h -2.24 q -1.152,0 -1.664,0.512 -0.448,0.512 -0.448,1.728 v 24.320001 h -5.76 V 87.014909 h 5.76 v 2.496 q 0.832,-2.496 3.968,-2.496 z"
       style="font-family:Teko;-inkscape-font-specification:Teko;text-align:center;text-anchor:middle"
       id="path953" />
    <path
       d="m 264.12215,91.686909 h -4.288 v 19.776001 q 0,1.152 0.32,1.536 0.384,0.32 1.536,0.32 h 2.432 v 4.928 h -4.096 q -6.016,0 -6.016,-5.632 V 91.686909 h -2.944 v -4.672 h 2.944 v -5.312 h 5.824 v 5.312 h 4.288 z"
       style="font-family:Teko;-inkscape-font-specification:Teko;text-align:center;text-anchor:middle"
       id="path955" />
    <path
       d="m 279.22615,87.014909 h 5.76 v 31.232001 h -5.76 v -2.496 q -0.832,2.496 -3.968,2.496 h -2.304 q -5.76,0 -5.76,-5.632 V 92.710909 q 0,-5.696 5.76,-5.696 h 2.304 q 3.136,0 3.968,2.496 z m -4.352,26.560001 h 2.24 q 1.152,0 1.6,-0.512 0.512,-0.512 0.512,-1.728 V 93.926909 q 0,-1.216 -0.512,-1.728 -0.448,-0.512 -1.6,-0.512 h -2.24 q -1.152,0 -1.536,0.384 -0.384,0.32 -0.384,1.472 v 18.176001 q 0,1.152 0.384,1.536 0.384,0.32 1.536,0.32 z"
       style="font-family:Teko;-inkscape-font-specification:Teko;text-align:center;text-anchor:middle"
       id="path957" />
    <path
       d="m 290.49019,81.062909 v -5.696 h 6.016 v 5.696 z m 5.888,37.184001 h -5.76 V 87.014909 h 5.76 z"
       style="font-family:Teko;-inkscape-font-specification:Teko;text-align:center;text-anchor:middle"
       id="path959" />
    <path
       d="m 311.73815,87.014909 h 2.24 q 5.824,0 5.824,5.696 v 25.536001 h -5.76 V 93.542909 q 0,-1.152 -0.384,-1.472 -0.384,-0.384 -1.536,-0.384 h -2.24 q -1.152,0 -1.664,0.512 -0.448,0.512 -0.448,1.728 v 24.320001 h -5.76 V 87.014909 h 5.76 v 2.496 q 0.832,-2.496 3.968,-2.496 z"
       style="font-family:Teko;-inkscape-font-specification:Teko;text-align:center;text-anchor:middle"
       id="path961" />
    <path
       d="m 331.19414,87.014909 h 6.272 q 6.016,0 6.016,5.696 v 11.712001 h -12.608 v 7.424 q 0,1.088 0.384,1.472 0.384,0.384 1.536,0.384 h 2.944 q 1.152,0 1.536,-0.384 0.384,-0.384 0.384,-1.536 v -2.56 h 5.632 v 3.392 q 0,5.632 -5.952,5.632 h -6.144 q -5.952,0 -5.952,-5.632 V 92.710909 q 0,-5.696 5.952,-5.696 z m -0.32,13.184001 h 6.912 v -6.784001 q 0,-1.088 -0.384,-1.472 -0.32,-0.384 -1.472,-0.384 h -3.136 q -1.152,0 -1.536,0.384 -0.384,0.384 -0.384,1.472 z"
       style="font-family:Teko;-inkscape-font-specification:Teko;text-align:center;text-anchor:middle"
       id="path963" />
    <path
       d="m 359.22618,86.950909 h 1.28 v 4.992 h -2.304 q -4.032,0 -4.032,4.736 v 21.568001 h -5.76 V 87.014909 h 5.76 v 3.84 q 0.512,-1.664 1.792,-2.752 1.344,-1.152 3.264,-1.152 z"
       style="font-family:Teko;-inkscape-font-specification:Teko;text-align:center;text-anchor:middle"
       id="path965" />
    <path
       d="m 374.07423,111.97491 v -5.184 q 0,-1.152 -0.384,-1.472 -0.384,-0.384 -1.536,-0.384 h -3.264 q -5.952,0 -5.952,-5.632001 v -6.592 q 0,-5.696 5.952,-5.696 h 4.672 q 6.016,0 6.016,5.696 v 3.008 h -5.632 v -2.432 q 0,-1.152 -0.384,-1.472 -0.384,-0.384 -1.536,-0.384 h -1.536 q -1.152,0 -1.536,0.384 -0.384,0.32 -0.384,1.472 v 5.376 q 0,1.152 0.384,1.536001 0.384,0.32 1.536,0.32 h 3.328 q 5.888,0 5.888,5.696 v 6.4 q 0,5.632 -5.952,5.632 h -4.736 q -5.952,0 -5.952,-5.632 v -3.072 h 5.632 v 2.432 q 0,1.152 0.384,1.536 0.384,0.32 1.536,0.32 h 1.536 q 1.152,0 1.536,-0.32 0.384,-0.384 0.384,-1.536 z"
       style="font-family:Teko;-inkscape-font-specification:Teko;text-align:center;text-anchor:middle"
       id="path967" />
  </g>
  <path
     style="fill:none;fill-opacity:1;stroke:#37342d;stroke-width:4;stroke-linecap:round;stroke-linejoin:miter;stroke-miterlimit:4;stroke-dasharray:none;stroke-opacity:1"
     d="m 388.51075,2 h 39.85192 v 140.27874 h -39.85192"
     id="path9320"
     inkscape:export-filename="T:\hdl\containers\doc\img\icon.png"
     inkscape:export-xdpi="266.47906"
     inkscape:export-ydpi="266.47906" />
  <path
     style="fill:none;stroke:#37342d;stroke-width:4;stroke-linecap:round;stroke-linejoin:miter;stroke-miterlimit:4;stroke-dasharray:none;stroke-opacity:0.5"
     d="m 406.62138,13.64548 h 10.3615 v 15.67508"
     id="path9322"
     inkscape:export-filename="T:\hdl\containers\doc\img\icon.png"
     inkscape:export-xdpi="266.47906"
     inkscape:export-ydpi="266.47906" />
  <path
     style="fill:none;stroke:#37342d;stroke-width:4;stroke-linecap:round;stroke-linejoin:miter;stroke-miterlimit:4;stroke-dasharray:none;stroke-opacity:0.5"
     d="m 406.62138,130.99216 h 10.3615 v -15.67508"
     id="path9324"
     inkscape:export-filename="T:\hdl\containers\doc\img\icon.png"
     inkscape:export-xdpi="266.47906"
     inkscape:export-ydpi="266.47906" />
  <path
     style="fill:none;stroke:#37342d;stroke-width:4;stroke-linecap:round;stroke-linejoin:miter;stroke-miterlimit:4;stroke-dasharray:none;stroke-opacity:0.5"
     d="m 393.97199,25.64548 v 93.51916"
     id="path9326"
     inkscape:export-filename="T:\hdl\containers\doc\img\icon.png"
     inkscape:export-xdpi="266.47906"
     inkscape:export-ydpi="266.47906" />
  <path
     style="fill:none;stroke:#37342d;stroke-width:4;stroke-linecap:round;stroke-linejoin:miter;stroke-miterlimit:4;stroke-dasharray:none;stroke-opacity:0.5"
     d="M 405.04211,25.51264 V 119.0318"
     id="path9328"
     inkscape:export-filename="T:\hdl\containers\doc\img\icon.png"
     inkscape:export-xdpi="266.47906"
     inkscape:export-ydpi="266.47906" />
</svg>
