<?xml version="1.0" encoding="UTF-8" standalone="no"?>
<svg
   xmlns:dc="http://purl.org/dc/elements/1.1/"
   xmlns:cc="http://creativecommons.org/ns#"
   xmlns:rdf="http://www.w3.org/1999/02/22-rdf-syntax-ns#"
   xmlns:svg="http://www.w3.org/2000/svg"
   xmlns="http://www.w3.org/2000/svg"
   xmlns:sodipodi="http://sodipodi.sourceforge.net/DTD/sodipodi-0.dtd"
   xmlns:inkscape="http://www.inkscape.org/namespaces/inkscape"
   version="1.1"
   width="195.58644"
   height="124.16465"
   id="svg2"
   sodipodi:docname="icon.svg"
   inkscape:version="0.92.4 (5da689c313, 2019-01-14)">
  <sodipodi:namedview
     pagecolor="#ffffff"
     bordercolor="#666666"
     borderopacity="1"
     objecttolerance="10"
     gridtolerance="10"
     guidetolerance="10"
     inkscape:pageopacity="0"
     inkscape:pageshadow="2"
     inkscape:window-width="1920"
     inkscape:window-height="1017"
     id="namedview28"
     showgrid="false"
     inkscape:zoom="1.8819672"
     inkscape:cx="11.951204"
     inkscape:cy="21.762978"
     inkscape:window-x="-8"
     inkscape:window-y="-8"
     inkscape:window-maximized="1"
     inkscape:current-layer="svg2"
     showguides="true"
     inkscape:guide-bbox="true" />
  <metadata
     id="metadata4">
    <rdf:RDF>
      <cc:Work
         rdf:about="">
        <dc:format>image/svg+xml</dc:format>
        <dc:type
           rdf:resource="http://purl.org/dc/dcmitype/StillImage" />
        <dc:title />
      </cc:Work>
    </rdf:RDF>
  </metadata>
  <defs
     id="defs6">
    <clipPath
       id="clipPath8">
      <path
         d="M 76,2 V 48 H 54 V 71 H 35.580737 c -0.07818,0.665694 -0.141485,1.332869 -0.205737,2 -1.151162,12.530963 1.036422,24.087546 6.0625,33.96875 L 43.125,110 c 1.011403,1.81678 2.191241,3.52297 3.4375,5.1875 1.244725,1.66248 1.685716,2.58262 2.46875,3.6875 C 62.319911,133.81083 82.129473,141 105,141 155.64836,141 198.63299,118.56201 217.65625,68.15625 231.15302,69.54122 244.09968,66.080358 250,54.5625 240.60137,49.138835 228.52163,50.877226 221.5625,54.375 L 240,2 168,48 H 145 V 2 Z"
         id="path10"
         inkscape:connector-curvature="0" />
    </clipPath>
    <clipPath
       id="clipPath8-5">
      <path
         inkscape:connector-curvature="0"
         d="M 76,2 V 48 H 54 V 71 H 35.580737 c -0.07818,0.665694 -0.141485,1.332869 -0.205737,2 -1.151162,12.530963 1.036422,24.087546 6.0625,33.96875 L 43.125,110 c 1.011403,1.81678 2.191241,3.52297 3.4375,5.1875 1.244725,1.66248 1.685716,2.58262 2.46875,3.6875 C 62.319911,133.81083 82.129473,141 105,141 155.64836,141 198.63299,118.56201 217.65625,68.15625 231.15302,69.54122 244.09968,66.080358 250,54.5625 240.60137,49.138835 228.52163,50.877226 221.5625,54.375 L 240,2 168,48 H 145 V 2 Z"
         id="path10-9" />
    </clipPath>
    <clipPath
       id="clipPath4536">
      <path
         inkscape:connector-curvature="0"
         d="M 76,2 V 48 H 54 V 71 H 35.580737 c -0.07818,0.665694 -0.141485,1.332869 -0.205737,2 -1.151162,12.530963 1.036422,24.087546 6.0625,33.96875 L 43.125,110 c 1.011403,1.81678 2.191241,3.52297 3.4375,5.1875 1.244725,1.66248 1.685716,2.58262 2.46875,3.6875 C 62.319911,133.81083 82.129473,141 105,141 155.64836,141 198.63299,118.56201 217.65625,68.15625 231.15302,69.54122 244.09968,66.080358 250,54.5625 240.60137,49.138835 228.52163,50.877226 221.5625,54.375 L 240,2 168,48 H 145 V 2 Z"
         id="path4534" />
    </clipPath>
    <clipPath
       id="clipPath4540">
      <path
         inkscape:connector-curvature="0"
         d="M 76,2 V 48 H 54 V 71 H 35.580737 c -0.07818,0.665694 -0.141485,1.332869 -0.205737,2 -1.151162,12.530963 1.036422,24.087546 6.0625,33.96875 L 43.125,110 c 1.011403,1.81678 2.191241,3.52297 3.4375,5.1875 1.244725,1.66248 1.685716,2.58262 2.46875,3.6875 C 62.319911,133.81083 82.129473,141 105,141 155.64836,141 198.63299,118.56201 217.65625,68.15625 231.15302,69.54122 244.09968,66.080358 250,54.5625 240.60137,49.138835 228.52163,50.877226 221.5625,54.375 L 240,2 168,48 H 145 V 2 Z"
         id="path4538" />
    </clipPath>
    <clipPath
       id="clipPath4544">
      <path
         inkscape:connector-curvature="0"
         d="M 76,2 V 48 H 54 V 71 H 35.580737 c -0.07818,0.665694 -0.141485,1.332869 -0.205737,2 -1.151162,12.530963 1.036422,24.087546 6.0625,33.96875 L 43.125,110 c 1.011403,1.81678 2.191241,3.52297 3.4375,5.1875 1.244725,1.66248 1.685716,2.58262 2.46875,3.6875 C 62.319911,133.81083 82.129473,141 105,141 155.64836,141 198.63299,118.56201 217.65625,68.15625 231.15302,69.54122 244.09968,66.080358 250,54.5625 240.60137,49.138835 228.52163,50.877226 221.5625,54.375 L 240,2 168,48 H 145 V 2 Z"
         id="path4542" />
    </clipPath>
    <clipPath
       id="clipPath4548">
      <path
         inkscape:connector-curvature="0"
         d="M 76,2 V 48 H 54 V 71 H 35.580737 c -0.07818,0.665694 -0.141485,1.332869 -0.205737,2 -1.151162,12.530963 1.036422,24.087546 6.0625,33.96875 L 43.125,110 c 1.011403,1.81678 2.191241,3.52297 3.4375,5.1875 1.244725,1.66248 1.685716,2.58262 2.46875,3.6875 C 62.319911,133.81083 82.129473,141 105,141 155.64836,141 198.63299,118.56201 217.65625,68.15625 231.15302,69.54122 244.09968,66.080358 250,54.5625 240.60137,49.138835 228.52163,50.877226 221.5625,54.375 L 240,2 168,48 H 145 V 2 Z"
         id="path4546" />
    </clipPath>
    <clipPath
       id="clipPath8-5-9">
      <path
         inkscape:connector-curvature="0"
         d="M 76,2 V 48 H 54 V 71 H 35.580737 c -0.07818,0.665694 -0.141485,1.332869 -0.205737,2 -1.151162,12.530963 1.036422,24.087546 6.0625,33.96875 L 43.125,110 c 1.011403,1.81678 2.191241,3.52297 3.4375,5.1875 1.244725,1.66248 1.685716,2.58262 2.46875,3.6875 C 62.319911,133.81083 82.129473,141 105,141 155.64836,141 198.63299,118.56201 217.65625,68.15625 231.15302,69.54122 244.09968,66.080358 250,54.5625 240.60137,49.138835 228.52163,50.877226 221.5625,54.375 L 240,2 168,48 H 145 V 2 Z"
         id="path10-9-1" />
    </clipPath>
  </defs>
  <path
     inkscape:connector-curvature="0"
     d="m 103.3578,39.20908 h 19.60473 v 20.04091 h 9.91278 c 4.57757,0 9.286,-0.81551 13.62112,-2.28442 2.13013,-0.72229 4.52108,-1.72743 6.62229,-2.99156 -2.76748,-3.61328 -4.18038,-8.17571 -4.59639,-12.67291 -0.56478,-6.11674 0.66902,-14.07846 4.80899,-18.86587 l 2.0608,-2.38359 2.4557,1.97402 c 6.18285,4.96739 11.38261,11.90836 12.29912,19.82095 7.4447,-2.18984 16.18518,-1.67188 22.74733,2.11544 l 2.69217,1.55341 -1.41704,2.76563 c -5.54969,10.83155 -17.1518,14.18678 -28.49491,13.59305 -16.97358,42.27578 -53.92701,62.29051 -98.732868,62.29051 -23.148182,0 -44.386166,-8.65325 -56.48005,-29.190987 C 9.752506,93.697906 9.145304,92.3639 8.50133,91.053642 4.413255,82.013317 3.055464,72.10973 3.976576,62.2144 L 4.253003,59.25038 H 21.017204 V 39.20947 H 40.621941 V 19.60474 H 79.831405 V 0 H 103.3575 v 39.20947"
     id="path14-9"
     style="fill:#394d54;stroke-width:0.85737497"
     inkscape:export-xdpi="98.169998"
     inkscape:export-ydpi="98.169998" />
  <path
     style="fill:#4bd7c8;fill-opacity:1;stroke-width:0.85737497"
     id="path24-1"
     d="M 83.099235,3.26662 H 100.09029 V 20.25811 H 83.099235 Z"
     inkscape:connector-curvature="0"
     inkscape:export-xdpi="98.169998"
     inkscape:export-ydpi="98.169998" />
  <path
     inkscape:connector-curvature="0"
     d="M 85.185525,18.84205 V 4.68186 m 2.54799,14.16019 V 4.68186 m 2.5737,14.16019 V 4.68186 m 2.57507,14.16019 V 4.68186 m 2.57463,14.16019 V 4.68186 m 2.54753,14.16019 V 4.68186"
     id="use28-6"
     style="stroke:#394d54;stroke-width:1.33750498"
     inkscape:export-xdpi="98.169998"
     inkscape:export-ydpi="98.169998" />
  <path
     inkscape:connector-curvature="0"
     d="M 24.285029,59.46677 H 41.276067 V 42.47619 H 24.285029 Z"
     id="path4837"
     style="fill:#ec563c;fill-opacity:1;stroke-width:0.85737497"
     inkscape:export-xdpi="98.169998"
     inkscape:export-ydpi="98.169998" />
  <path
     inkscape:connector-curvature="0"
     d="m 26.371314,43.89184 v 14.1602 m 2.54799,-14.1602 v 14.1602 m 2.573703,-14.1602 v 14.1602 m 2.575074,-14.1602 v 14.1602 m 2.574628,-14.1602 v 14.1602 m 2.547527,-14.1602 v 14.1602"
     id="path4841"
     style="stroke:#394d54;stroke-width:1.33750498"
     inkscape:export-xdpi="98.169998"
     inkscape:export-ydpi="98.169998" />
  <path
     inkscape:connector-curvature="0"
     d="M 43.889766,22.87187 H 60.880804 V 39.86245 H 43.889766 Z"
     id="path4771"
     style="fill:#ec563c;fill-opacity:1;stroke-width:0.85737497"
     inkscape:export-xdpi="98.169998"
     inkscape:export-ydpi="98.169998" />
  <path
     inkscape:connector-curvature="0"
     d="M 43.889766,42.47611 H 60.880804 V 59.46759 H 43.889766 Z"
     id="path4773"
     style="fill:#4bd7c8;fill-opacity:1;stroke-width:0.85737497"
     inkscape:export-xdpi="98.169998"
     inkscape:export-ydpi="98.169998" />
  <path
     inkscape:connector-curvature="0"
     d="M 45.976051,38.4468 V 24.2866 m 2.54799,14.1602 V 24.2866 m 2.573703,14.1602 V 24.2866 m 2.575074,14.1602 V 24.2866 m 2.574628,14.1602 V 24.2866 m 2.547527,14.1602 V 24.2866"
     id="path4775"
     style="stroke:#394d54;stroke-width:1.33750498"
     inkscape:export-xdpi="98.169998"
     inkscape:export-ydpi="98.169998" />
  <path
     inkscape:connector-curvature="0"
     d="m 45.976051,58.05153 v -14.1602 m 2.54799,14.1602 v -14.1602 m 2.573703,14.1602 v -14.1602 m 2.575074,14.1602 v -14.1602 m 2.574628,14.1602 v -14.1602 m 2.547527,14.1602 v -14.1602"
     id="use4777"
     style="stroke:#394d54;stroke-width:1.33750498"
     inkscape:export-xdpi="98.169998"
     inkscape:export-ydpi="98.169998" />
  <path
     style="fill:#ec563c;fill-opacity:1;stroke-width:0.85737497"
     id="path4817"
     d="M 63.494503,59.46677 H 80.485535 V 42.47619 H 63.494503 Z"
     inkscape:connector-curvature="0"
     inkscape:export-xdpi="98.169998"
     inkscape:export-ydpi="98.169998" />
  <path
     style="fill:#4bd7c8;fill-opacity:1;stroke-width:0.85737497"
     id="path4819"
     d="M 63.494503,39.86253 H 80.485535 V 22.87105 H 63.494503 Z"
     inkscape:connector-curvature="0"
     inkscape:export-xdpi="98.169998"
     inkscape:export-ydpi="98.169998" />
  <path
     style="stroke:#394d54;stroke-width:1.33750498"
     id="path4821"
     d="m 65.580787,43.89184 v 14.1602 m 2.547991,-14.1602 v 14.1602 m 2.573703,-14.1602 v 14.1602 m 2.575073,-14.1602 v 14.1602 m 2.574631,-14.1602 v 14.1602 m 2.54752,-14.1602 v 14.1602"
     inkscape:connector-curvature="0"
     inkscape:export-xdpi="98.169998"
     inkscape:export-ydpi="98.169998" />
  <path
     inkscape:connector-curvature="0"
     d="m 65.580787,24.28711 v 14.1602 m 2.547991,-14.1602 v 14.1602 m 2.573703,-14.1602 v 14.1602 m 2.575073,-14.1602 v 14.1602 m 2.574631,-14.1602 v 14.1602 m 2.54752,-14.1602 v 14.1602"
     id="use4823"
     style="stroke:#394d54;stroke-width:1.33750498"
     inkscape:export-xdpi="98.169998"
     inkscape:export-ydpi="98.169998" />
  <path
     inkscape:connector-curvature="0"
     d="M 83.099235,22.87187 H 100.09029 V 39.86245 H 83.099235 Z"
     id="path4757"
     style="fill:#ec563c;fill-opacity:1;stroke-width:0.85737497"
     inkscape:export-xdpi="98.169998"
     inkscape:export-ydpi="98.169998" />
  <path
     inkscape:connector-curvature="0"
     d="M 83.099235,42.47611 H 100.09029 V 59.46759 H 83.099235 Z"
     id="path4759"
     style="fill:#4bd7c8;fill-opacity:1;stroke-width:0.85737497"
     inkscape:export-xdpi="98.169998"
     inkscape:export-ydpi="98.169998" />
  <path
     inkscape:connector-curvature="0"
     d="M 85.185525,38.4468 V 24.2866 m 2.54799,14.1602 V 24.2866 m 2.5737,14.1602 V 24.2866 m 2.57507,14.1602 V 24.2866 m 2.57463,14.1602 V 24.2866 m 2.54753,14.1602 V 24.2866"
     id="path4761"
     style="stroke:#394d54;stroke-width:1.33750498"
     inkscape:export-xdpi="98.169998"
     inkscape:export-ydpi="98.169998" />
  <path
     style="stroke:#394d54;stroke-width:1.33750498"
     id="use4763"
     d="m 85.185525,58.05153 v -14.1602 m 2.54799,14.1602 v -14.1602 m 2.5737,14.1602 v -14.1602 m 2.57507,14.1602 v -14.1602 m 2.57463,14.1602 v -14.1602 m 2.54753,14.1602 v -14.1602"
     inkscape:connector-curvature="0"
     inkscape:export-xdpi="98.169998"
     inkscape:export-ydpi="98.169998" />
  <path
     inkscape:connector-curvature="0"
     d="m 102.70397,59.46677 h 16.99105 V 42.47619 h -16.99105 z"
     id="path4827"
     style="fill:#ec563c;fill-opacity:1;stroke-width:0.85737497"
     inkscape:export-xdpi="98.169998"
     inkscape:export-ydpi="98.169998" />
  <path
     inkscape:connector-curvature="0"
     d="m 104.79027,43.89184 v 14.1602 m 2.54798,-14.1602 v 14.1602 m 2.57371,-14.1602 v 14.1602 m 2.57507,-14.1602 v 14.1602 m 2.57463,-14.1602 v 14.1602 m 2.54753,-14.1602 v 14.1602"
     id="path4831"
     style="stroke:#394d54;stroke-width:1.33750498"
     inkscape:export-xdpi="98.169998"
     inkscape:export-ydpi="98.169998" />
  <path
     transform="matrix(0.857375,0,0,0.857375,-23.09438,-3.9e-4)"
     inkscape:connector-curvature="0"
     d="m 221.57014,54.379649 c 1.53332,-11.915247 -7.38383,-21.274779 -12.91407,-25.71836 -6.37269,7.367765 -7.36295,26.677556 2.63498,34.807431 -5.57952,4.956117 -17.33731,9.448435 -29.37574,9.448435 L 34,72.917155 C 32.829255,85.484184 34,146 34,146 h 217 l -0.98657,-91.424 c -9.39863,-5.423665 -21.48419,-3.694326 -28.44332,-0.196552"
     clip-path="url(#clipPath8-5)"
     id="path38-0"
     style="fill:#f2f1ef;fill-opacity:1"
     inkscape:export-xdpi="98.169998"
     inkscape:export-ydpi="98.169998" />
  <path
     transform="matrix(0.857375,0,0,0.857375,-23.09438,-3.9e-4)"
     inkscape:connector-curvature="0"
     d="m 34,89 v 57 H 251 V 89"
     clip-path="url(#clipPath8-5)"
     id="path40-5"
     style="fill-opacity:0.17000002"
     inkscape:export-xdpi="98.169998"
     inkscape:export-ydpi="98.169998" />
  <path
     transform="matrix(0.857375,0,0,0.857375,-23.09438,-3.9e-4)"
     inkscape:connector-curvature="0"
     d="M 111.23736,140.88997 C 97.697741,134.4648 90.265707,125.73081 86.130611,116.19562 L 45,118 l 21,28 45.23736,-5.11003"
     clip-path="url(#clipPath8-5)"
     id="path42-6"
     style="fill:#d4edf1"
     inkscape:export-xdpi="98.169998"
     inkscape:export-ydpi="98.169998" />
  <path
     transform="matrix(0.857375,0,0,0.857375,-23.09438,-3.9e-4)"
     inkscape:connector-curvature="0"
     d="m 222.5,53.9375 v 0.03125 c -20.86119,26.889144 -50.78312,50.37872 -82.90625,62.71875 -28.65478,11.00767 -53.638381,11.06039 -70.875,2.21875 -1.85607,-1.04832 -3.675701,-2.21152 -5.5,-3.3125 C 50.582097,106.76175 43.464274,92.152308 44.0625,72.90625 H 34 V 146 H 251 V 50 h -25 z"
     clip-path="url(#clipPath8-5)"
     id="path44-7"
     style="fill-opacity:0.08500001"
     inkscape:export-xdpi="98.169998"
     inkscape:export-ydpi="98.169998" />
  <path
     inkscape:connector-curvature="0"
     d="m 16.023355,100.33927 c 12.144854,0.66473 25.106041,0.78392 36.411644,-2.759675"
     id="path46-8"
     style="fill:none;stroke:#394d54;stroke-width:2.91507506;stroke-linecap:round"
     inkscape:export-xdpi="98.169998"
     inkscape:export-ydpi="98.169998" />
  <path
     inkscape:connector-curvature="0"
     d="m 64.50383,91.703798 c 0,2.588399 -2.098451,4.686849 -4.686849,4.686849 -2.588852,0 -4.687767,-2.09845 -4.687767,-4.686849 0,-2.58839 2.098915,-4.687766 4.687767,-4.687766 2.588398,0 4.686849,2.099376 4.686849,4.687766 z"
     id="path48-7"
     style="fill:#d4edf1;stroke-width:0.85737497"
     inkscape:export-xdpi="98.169998"
     inkscape:export-ydpi="98.169998" />
  <path
     inkscape:connector-curvature="0"
     d="m 61.03243,88.573111 c -0.409123,0.236481 -0.686011,0.679589 -0.686011,1.186521 0,0.756727 0.613469,1.369279 1.370196,1.369279 0.518413,0 0.968869,-0.287907 1.201672,-0.713112 0.164384,0.396278 0.255763,0.831575 0.255763,1.287999 0,1.853713 -1.502893,3.356607 -3.357069,3.356607 -1.853704,0 -3.357523,-1.502894 -3.357523,-3.356607 0,-1.854622 1.503819,-3.357977 3.357523,-3.357977 0.428876,0 0.838007,0.08084 1.215449,0.22729 z"
     id="path50-0"
     style="fill:#394d54;stroke-width:0.85737497"
     inkscape:export-xdpi="98.169998"
     inkscape:export-ydpi="98.169998" />
  <path
     style="fill:none;stroke:#11252c;stroke-width:3.09512377;stroke-linecap:round;stroke-linejoin:miter;stroke-miterlimit:4;stroke-dasharray:none;stroke-opacity:1"
     d="M 1.569603,77.372217 H 170.29562"
     id="path1185"
     inkscape:connector-curvature="0"
     inkscape:export-xdpi="98.169998"
     inkscape:export-ydpi="98.169998" />
  <path
     style="display:inline;fill:#11252c;fill-opacity:1;stroke-width:0.15293014"
     d="m 11.929006,66.838034 c -0.921576,1.6e-5 -1.843451,0.350376 -2.545014,1.051862 -1.403129,1.403159 -1.403129,3.686742 0,5.090025 0.701641,0.701485 1.623464,1.051861 2.545014,1.051861 0.548711,0 1.096569,-0.127503 1.598945,-0.376313 l 3.894596,3.894594 h 3.24323 l -5.516212,-5.516207 c 0.666644,-1.345922 0.443759,-3.024484 -0.675546,-4.14396 -0.701632,-0.701555 -1.623439,-1.051878 -2.545013,-1.051862 z m 0,2.292627 c 0.334148,0 0.667584,0.126544 0.921888,0.380848 0.508824,0.508814 0.508824,1.336481 0,1.845288 -0.508638,0.508475 -1.336326,0.508801 -1.845288,0 -0.508807,-0.508798 -0.508807,-1.336628 0,-1.845288 0.254473,-0.254474 0.589086,-0.380848 0.9234,-0.380848 z"
     id="path32-1-0"
     inkscape:connector-curvature="0"
     inkscape:export-xdpi="98.169998"
     inkscape:export-ydpi="98.169998" />
  <path
     id="path1403"
     d="m 38.734284,88.382996 c 0.921574,-1.6e-5 1.84345,-0.350376 2.545014,-1.051862 1.403127,-1.403159 1.403127,-3.686742 0,-5.090025 -0.701641,-0.701485 -1.623464,-1.051861 -2.545014,-1.051861 -0.548711,0 -1.09657,0.127503 -1.598946,0.376313 l -3.894597,-3.894594 h -3.24323 l 5.516212,5.516207 c -0.666644,1.345922 -0.443758,3.024484 0.675547,4.14396 0.701632,0.701556 1.62344,1.051878 2.545014,1.051862 z m 0,-2.292627 c -0.33415,0 -0.667585,-0.126544 -0.921887,-0.380847 -0.508825,-0.508815 -0.508825,-1.336482 0,-1.845289 0.508636,-0.508475 1.336324,-0.508801 1.845286,0 0.508807,0.508798 0.508807,1.336628 0,1.845289 -0.254473,0.254473 -0.589086,0.380847 -0.923399,0.380847 z"
     style="display:inline;fill:#11252c;fill-opacity:1;stroke-width:0.15293014"
     inkscape:connector-curvature="0"
     inkscape:export-xdpi="98.169998"
     inkscape:export-ydpi="98.169998" />
  <path
     id="path1409"
     d="m 72.283918,66.838034 c -0.921574,1.6e-5 -1.84345,0.350376 -2.545014,1.051862 -1.403127,1.403159 -1.403127,3.686742 0,5.090025 0.701642,0.701485 1.623466,1.051861 2.545014,1.051861 0.548713,0 1.09657,-0.127503 1.598946,-0.376313 l 3.894601,3.894594 h 3.24323 l -5.51622,-5.516207 c 0.66664,-1.345922 0.44376,-3.024484 -0.675543,-4.14396 -0.701631,-0.701555 -1.62344,-1.051878 -2.545014,-1.051862 z m 0,2.292627 c 0.334149,0 0.667585,0.126544 0.921889,0.380848 0.508824,0.508814 0.508824,1.336481 0,1.845288 -0.508639,0.508475 -1.336325,0.508801 -1.845288,0 -0.508807,-0.508798 -0.508807,-1.336628 0,-1.845288 0.254474,-0.254474 0.589087,-0.380848 0.923399,-0.380848 z"
     style="display:inline;fill:#11252c;fill-opacity:1;stroke-width:0.15293014"
     inkscape:connector-curvature="0"
     inkscape:export-xdpi="98.169998"
     inkscape:export-ydpi="98.169998" />
  <path
     inkscape:connector-curvature="0"
     style="display:inline;fill:#11252c;fill-opacity:1;stroke-width:0.15293014"
     d="m 99.089195,66.838034 c 0.921585,1.6e-5 1.843445,0.350376 2.545025,1.051862 1.40311,1.403159 1.40311,3.686742 0,5.090025 -0.70164,0.701485 -1.62346,1.051861 -2.545025,1.051861 -0.54871,0 -1.09657,-0.127503 -1.59895,-0.376313 l -3.8946,3.894594 h -3.24322 l 5.51622,-5.516207 c -0.66666,-1.345922 -0.44377,-3.024484 0.67554,-4.14396 0.70163,-0.701555 1.62343,-1.051878 2.54501,-1.051862 z m 0,2.292627 c -0.33415,0 -0.66759,0.126544 -0.92189,0.380848 -0.50881,0.508814 -0.50881,1.336481 0,1.845288 0.50864,0.508475 1.33633,0.508801 1.845295,0 0.50881,-0.508798 0.50881,-1.336628 0,-1.845288 -0.254485,-0.254474 -0.589095,-0.380848 -0.923405,-0.380848 z"
     id="path1411"
     inkscape:export-xdpi="98.169998"
     inkscape:export-ydpi="98.169998" />
  <path
     inkscape:connector-curvature="0"
     style="display:inline;fill:#11252c;fill-opacity:1;stroke-width:0.15293014"
     d="m 127.99615,86.835434 c -0.92158,-1.5e-5 -1.84346,-0.350375 -2.54501,-1.051862 -1.40314,-1.403159 -1.40314,-3.686741 0,-5.090024 0.70164,-0.701487 1.62346,-1.051862 2.54501,-1.051862 0.54871,0 1.09658,0.127504 1.59895,0.376312 l 3.8946,-3.894593 h 3.24323 l -5.51622,5.516206 c 0.66665,1.345922 0.44376,3.024486 -0.67555,4.143961 -0.70163,0.701556 -1.62344,1.051878 -2.54501,1.051862 z m 0,-2.292627 c 0.33415,0 0.66758,-0.126544 0.9219,-0.380848 0.50881,-0.508814 0.50881,-1.336482 0,-1.845288 -0.50865,-0.508475 -1.33634,-0.5088 -1.84529,0 -0.50882,0.508799 -0.50882,1.336629 0,1.845288 0.25446,0.254475 0.58907,0.380848 0.92339,0.380848 z"
     id="path1413"
     inkscape:export-xdpi="98.169998"
     inkscape:export-ydpi="98.169998" />
  <path
     id="path1415"
     d="m 159.44411,66.838034 c 0.92158,1.6e-5 1.84345,0.350376 2.54502,1.051862 1.40312,1.403159 1.40312,3.686742 0,5.090025 -0.70165,0.701485 -1.62346,1.051861 -2.54502,1.051861 -0.54871,0 -1.09657,-0.127503 -1.59894,-0.376313 l -3.8946,3.894594 h -3.24323 l 5.51622,-5.516207 c -0.66666,-1.345922 -0.44377,-3.024484 0.67554,-4.14396 0.70163,-0.701555 1.62344,-1.051878 2.54501,-1.051862 z m 0,2.292627 c -0.33415,0 -0.66758,0.126544 -0.92189,0.380848 -0.50882,0.508814 -0.50882,1.336481 0,1.845288 0.50864,0.508475 1.33633,0.508801 1.84528,0 0.50881,-0.508798 0.50881,-1.336628 0,-1.845288 -0.25446,-0.254474 -0.58907,-0.380848 -0.92339,-0.380848 z"
     style="display:inline;fill:#11252c;fill-opacity:1;stroke-width:0.15293014"
     inkscape:connector-curvature="0"
     inkscape:export-xdpi="98.169998"
     inkscape:export-ydpi="98.169998" />
</svg>
