<?xml version="1.0" encoding="UTF-8" standalone="no"?>
<svg
   version="1.1"
   width="87.181335"
   height="72.139374"
   id="svg2"
   sodipodi:docname="icon.svg"
   inkscape:version="1.1 (c68e22c387, 2021-05-23)"
   xmlns:inkscape="http://www.inkscape.org/namespaces/inkscape"
   xmlns:sodipodi="http://sodipodi.sourceforge.net/DTD/sodipodi-0.dtd"
   xmlns="http://www.w3.org/2000/svg"
   xmlns:svg="http://www.w3.org/2000/svg"
   xmlns:rdf="http://www.w3.org/1999/02/22-rdf-syntax-ns#"
   xmlns:cc="http://creativecommons.org/ns#"
   xmlns:dc="http://purl.org/dc/elements/1.1/">
  <sodipodi:namedview
     pagecolor="#ffffff"
     bordercolor="#666666"
     borderopacity="1"
     objecttolerance="10"
     gridtolerance="10"
     guidetolerance="10"
     inkscape:pageopacity="0"
     inkscape:pageshadow="2"
     inkscape:window-width="1920"
     inkscape:window-height="1017"
     id="namedview28"
     showgrid="false"
     inkscape:zoom="3.7639344"
     inkscape:cx="55.659844"
     inkscape:cy="19.793119"
     inkscape:window-x="1912"
     inkscape:window-y="1072"
     inkscape:window-maximized="1"
     inkscape:current-layer="svg2"
     showguides="true"
     inkscape:guide-bbox="true"
     inkscape:pagecheckerboard="1"
     fit-margin-top="0"
     fit-margin-left="0"
     fit-margin-right="0"
     fit-margin-bottom="0" />
  <metadata
     id="metadata4">
    <rdf:RDF>
      <cc:Work
         rdf:about="">
        <dc:format>image/svg+xml</dc:format>
        <dc:type
           rdf:resource="http://purl.org/dc/dcmitype/StillImage" />
      </cc:Work>
    </rdf:RDF>
  </metadata>
  <defs
     id="defs6">
    <inkscape:path-effect
       effect="skeletal"
       id="path-effect9609"
       is_visible="true"
       lpeversion="1"
       pattern="M 0,18.867925 C 0,8.4528302 8.4528302,0 18.867925,0 c 10.415094,0 18.867924,8.4528302 18.867924,18.867925 0,10.415094 -8.45283,18.867924 -18.867924,18.867924 C 8.4528302,37.735849 0,29.283019 0,18.867925 Z"
       copytype="single_stretched"
       prop_scale="1"
       scale_y_rel="false"
       spacing="0"
       normal_offset="0"
       tang_offset="0"
       prop_units="false"
       vertical_pattern="false"
       hide_knot="false"
       fuse_tolerance="0" />
    <inkscape:path-effect
       effect="skeletal"
       id="path-effect9412"
       is_visible="true"
       lpeversion="1"
       pattern="M 0,18.867925 C 0,8.4528302 8.4528302,0 18.867925,0 c 10.415094,0 18.867924,8.4528302 18.867924,18.867925 0,10.415094 -8.45283,18.867924 -18.867924,18.867924 C 8.4528302,37.735849 0,29.283019 0,18.867925 Z"
       copytype="single_stretched"
       prop_scale="1"
       scale_y_rel="false"
       spacing="0"
       normal_offset="0"
       tang_offset="0"
       prop_units="false"
       vertical_pattern="false"
       hide_knot="false"
       fuse_tolerance="0" />
    <inkscape:path-effect
       effect="skeletal"
       id="path-effect8639"
       is_visible="true"
       lpeversion="1"
       pattern="M 0,18.867925 C 0,8.4528302 8.4528302,0 18.867925,0 c 10.415094,0 18.867924,8.4528302 18.867924,18.867925 0,10.415094 -8.45283,18.867924 -18.867924,18.867924 C 8.4528302,37.735849 0,29.283019 0,18.867925 Z"
       copytype="single_stretched"
       prop_scale="1"
       scale_y_rel="false"
       spacing="0"
       normal_offset="0"
       tang_offset="0"
       prop_units="false"
       vertical_pattern="false"
       hide_knot="false"
       fuse_tolerance="0" />
    <marker
       style="overflow:visible"
       id="marker8410"
       refX="0"
       refY="0"
       orient="auto"
       inkscape:stockid="DotS"
       inkscape:isstock="true">
      <path
         transform="matrix(0.2,0,0,0.2,1.48,0.2)"
         style="fill:context-stroke;fill-rule:evenodd;stroke:context-stroke;stroke-width:1pt"
         d="m -2.5,-1 c 0,2.76 -2.24,5 -5,5 -2.76,0 -5,-2.24 -5,-5 0,-2.76 2.24,-5 5,-5 2.76,0 5,2.24 5,5 z"
         id="path8408" />
    </marker>
    <marker
       style="overflow:visible"
       id="DotS"
       refX="0"
       refY="0"
       orient="auto"
       inkscape:stockid="DotS"
       inkscape:isstock="true">
      <path
         transform="matrix(0.2,0,0,0.2,1.48,0.2)"
         style="fill:context-stroke;fill-rule:evenodd;stroke:context-stroke;stroke-width:1pt"
         d="m -2.5,-1 c 0,2.76 -2.24,5 -5,5 -2.76,0 -5,-2.24 -5,-5 0,-2.76 2.24,-5 5,-5 2.76,0 5,2.24 5,5 z"
         id="path7732" />
    </marker>
    <marker
       style="overflow:visible"
       id="DotL"
       refX="0"
       refY="0"
       orient="auto"
       inkscape:stockid="DotL"
       inkscape:isstock="true">
      <path
         transform="matrix(0.8,0,0,0.8,5.92,0.8)"
         style="fill:context-stroke;fill-rule:evenodd;stroke:context-stroke;stroke-width:1pt"
         d="m -2.5,-1 c 0,2.76 -2.24,5 -5,5 -2.76,0 -5,-2.24 -5,-5 0,-2.76 2.24,-5 5,-5 2.76,0 5,2.24 5,5 z"
         id="path7726" />
    </marker>
    <marker
       style="overflow:visible"
       id="Arrow1Lstart"
       refX="0"
       refY="0"
       orient="auto"
       inkscape:stockid="Arrow1Lstart"
       inkscape:isstock="true">
      <path
         transform="matrix(0.8,0,0,0.8,10,0)"
         style="fill:context-stroke;fill-rule:evenodd;stroke:context-stroke;stroke-width:1pt"
         d="M 0,0 5,-5 -12.5,0 5,5 Z"
         id="path7665" />
    </marker>
    <clipPath
       id="clipPath8">
      <path
         d="M 76,2 V 48 H 54 V 71 H 35.580737 c -0.07818,0.665694 -0.141485,1.332869 -0.205737,2 -1.151162,12.530963 1.036422,24.087546 6.0625,33.96875 L 43.125,110 c 1.011403,1.81678 2.191241,3.52297 3.4375,5.1875 1.244725,1.66248 1.685716,2.58262 2.46875,3.6875 C 62.319911,133.81083 82.129473,141 105,141 155.64836,141 198.63299,118.56201 217.65625,68.15625 231.15302,69.54122 244.09968,66.080358 250,54.5625 240.60137,49.138835 228.52163,50.877226 221.5625,54.375 L 240,2 168,48 H 145 V 2 Z"
         id="path10"
         inkscape:connector-curvature="0" />
    </clipPath>
    <clipPath
       id="clipPath8-5">
      <path
         inkscape:connector-curvature="0"
         d="M 76,2 V 48 H 54 V 71 H 35.580737 c -0.07818,0.665694 -0.141485,1.332869 -0.205737,2 -1.151162,12.530963 1.036422,24.087546 6.0625,33.96875 L 43.125,110 c 1.011403,1.81678 2.191241,3.52297 3.4375,5.1875 1.244725,1.66248 1.685716,2.58262 2.46875,3.6875 C 62.319911,133.81083 82.129473,141 105,141 155.64836,141 198.63299,118.56201 217.65625,68.15625 231.15302,69.54122 244.09968,66.080358 250,54.5625 240.60137,49.138835 228.52163,50.877226 221.5625,54.375 L 240,2 168,48 H 145 V 2 Z"
         id="path10-9" />
    </clipPath>
    <clipPath
       id="clipPath4536">
      <path
         inkscape:connector-curvature="0"
         d="M 76,2 V 48 H 54 V 71 H 35.580737 c -0.07818,0.665694 -0.141485,1.332869 -0.205737,2 -1.151162,12.530963 1.036422,24.087546 6.0625,33.96875 L 43.125,110 c 1.011403,1.81678 2.191241,3.52297 3.4375,5.1875 1.244725,1.66248 1.685716,2.58262 2.46875,3.6875 C 62.319911,133.81083 82.129473,141 105,141 155.64836,141 198.63299,118.56201 217.65625,68.15625 231.15302,69.54122 244.09968,66.080358 250,54.5625 240.60137,49.138835 228.52163,50.877226 221.5625,54.375 L 240,2 168,48 H 145 V 2 Z"
         id="path4534" />
    </clipPath>
    <clipPath
       id="clipPath4540">
      <path
         inkscape:connector-curvature="0"
         d="M 76,2 V 48 H 54 V 71 H 35.580737 c -0.07818,0.665694 -0.141485,1.332869 -0.205737,2 -1.151162,12.530963 1.036422,24.087546 6.0625,33.96875 L 43.125,110 c 1.011403,1.81678 2.191241,3.52297 3.4375,5.1875 1.244725,1.66248 1.685716,2.58262 2.46875,3.6875 C 62.319911,133.81083 82.129473,141 105,141 155.64836,141 198.63299,118.56201 217.65625,68.15625 231.15302,69.54122 244.09968,66.080358 250,54.5625 240.60137,49.138835 228.52163,50.877226 221.5625,54.375 L 240,2 168,48 H 145 V 2 Z"
         id="path4538" />
    </clipPath>
    <clipPath
       id="clipPath4544">
      <path
         inkscape:connector-curvature="0"
         d="M 76,2 V 48 H 54 V 71 H 35.580737 c -0.07818,0.665694 -0.141485,1.332869 -0.205737,2 -1.151162,12.530963 1.036422,24.087546 6.0625,33.96875 L 43.125,110 c 1.011403,1.81678 2.191241,3.52297 3.4375,5.1875 1.244725,1.66248 1.685716,2.58262 2.46875,3.6875 C 62.319911,133.81083 82.129473,141 105,141 155.64836,141 198.63299,118.56201 217.65625,68.15625 231.15302,69.54122 244.09968,66.080358 250,54.5625 240.60137,49.138835 228.52163,50.877226 221.5625,54.375 L 240,2 168,48 H 145 V 2 Z"
         id="path4542" />
    </clipPath>
    <clipPath
       id="clipPath4548">
      <path
         inkscape:connector-curvature="0"
         d="M 76,2 V 48 H 54 V 71 H 35.580737 c -0.07818,0.665694 -0.141485,1.332869 -0.205737,2 -1.151162,12.530963 1.036422,24.087546 6.0625,33.96875 L 43.125,110 c 1.011403,1.81678 2.191241,3.52297 3.4375,5.1875 1.244725,1.66248 1.685716,2.58262 2.46875,3.6875 C 62.319911,133.81083 82.129473,141 105,141 155.64836,141 198.63299,118.56201 217.65625,68.15625 231.15302,69.54122 244.09968,66.080358 250,54.5625 240.60137,49.138835 228.52163,50.877226 221.5625,54.375 L 240,2 168,48 H 145 V 2 Z"
         id="path4546" />
    </clipPath>
    <clipPath
       id="clipPath8-5-9">
      <path
         inkscape:connector-curvature="0"
         d="M 76,2 V 48 H 54 V 71 H 35.580737 c -0.07818,0.665694 -0.141485,1.332869 -0.205737,2 -1.151162,12.530963 1.036422,24.087546 6.0625,33.96875 L 43.125,110 c 1.011403,1.81678 2.191241,3.52297 3.4375,5.1875 1.244725,1.66248 1.685716,2.58262 2.46875,3.6875 C 62.319911,133.81083 82.129473,141 105,141 155.64836,141 198.63299,118.56201 217.65625,68.15625 231.15302,69.54122 244.09968,66.080358 250,54.5625 240.60137,49.138835 228.52163,50.877226 221.5625,54.375 L 240,2 168,48 H 145 V 2 Z"
         id="path10-9-1" />
    </clipPath>
  </defs>
  <rect
     style="fill:#f2f1ef;fill-opacity:1;stroke:none;stroke-width:2.00941;stroke-linecap:round;stroke-linejoin:round;stroke-miterlimit:4;stroke-dasharray:none;stroke-opacity:1"
     id="rect11065"
     width="20.113823"
     height="70.139374"
     x="66.255371"
     y="1.0000025"
     inkscape:export-filename="T:\hdl\containers\doc\img\icon.png"
     inkscape:export-xdpi="266.47906"
     inkscape:export-ydpi="266.47906" />
  <path
     style="fill:none;stroke:#37342d;stroke-width:7;stroke-linecap:round;stroke-linejoin:miter;stroke-miterlimit:2;stroke-dasharray:none;stroke-opacity:1"
     d="m 3.5,68.5696 56.077327,3e-5"
     id="path8574"
     sodipodi:nodetypes="cc"
     inkscape:export-filename="T:\hdl\containers\doc\img\icon.png"
     inkscape:export-xdpi="266.47906"
     inkscape:export-ydpi="266.47906" />
  <path
     style="fill:#4bd7c8;fill-opacity:1;stroke-width:0.857375"
     id="path24-1-1"
     d="m 22.996167,6.56451 h 16.99106 V 23.556 h -16.99106 z"
     inkscape:connector-curvature="0"
     inkscape:export-xdpi="266.47906"
     inkscape:export-ydpi="266.47906"
     inkscape:export-filename="T:\hdl\containers\doc\img\icon.png" />
  <path
     style="fill:#ec563c;fill-opacity:1;stroke-width:0.857375"
     id="path4817-5"
     d="M 3.3914392,62.76466 H 20.382477 V 45.77408 H 3.3914392 Z"
     inkscape:connector-curvature="0"
     inkscape:export-xdpi="266.47906"
     inkscape:export-ydpi="266.47906"
     inkscape:export-filename="T:\hdl\containers\doc\img\icon.png" />
  <path
     style="fill:#4bd7c8;fill-opacity:1;stroke-width:0.857375"
     id="path4819-3"
     d="M 3.3914392,43.16042 H 20.382477 V 26.16894 H 3.3914392 Z"
     inkscape:connector-curvature="0"
     inkscape:export-xdpi="266.47906"
     inkscape:export-ydpi="266.47906"
     inkscape:export-filename="T:\hdl\containers\doc\img\icon.png" />
  <path
     inkscape:connector-curvature="0"
     d="m 22.996167,26.16976 h 16.99106 v 16.99058 h -16.99106 z"
     id="path4757-8"
     style="fill:#ec563c;fill-opacity:1;stroke-width:0.857375"
     inkscape:export-xdpi="266.47906"
     inkscape:export-ydpi="266.47906"
     inkscape:export-filename="T:\hdl\containers\doc\img\icon.png" />
  <path
     inkscape:connector-curvature="0"
     d="m 22.996167,45.774 h 16.99106 v 16.99148 h -16.99106 z"
     id="path4759-3"
     style="fill:#4bd7c8;fill-opacity:1;stroke-width:0.857375"
     inkscape:export-xdpi="266.47906"
     inkscape:export-ydpi="266.47906"
     inkscape:export-filename="T:\hdl\containers\doc\img\icon.png" />
  <path
     inkscape:connector-curvature="0"
     d="m 42.600907,62.76466 h 16.99105 V 45.77408 h -16.99105 z"
     id="path4827-6"
     style="fill:#ec563c;fill-opacity:1;stroke-width:0.857375"
     inkscape:export-xdpi="266.47906"
     inkscape:export-ydpi="266.47906"
     inkscape:export-filename="T:\hdl\containers\doc\img\icon.png" />
  <path
     style="fill:none;stroke:#f2f1ef;stroke-width:3;stroke-linecap:round;stroke-linejoin:miter;stroke-miterlimit:2;stroke-dasharray:none;stroke-opacity:1"
     d="m 3.5,68.5696 56.077327,3e-5"
     id="path7663"
     sodipodi:nodetypes="cc"
     inkscape:export-filename="T:\hdl\containers\doc\img\icon.png"
     inkscape:export-xdpi="266.47906"
     inkscape:export-ydpi="266.47906" />
  <path
     style="fill:none;fill-opacity:1;stroke:#37342d;stroke-width:2;stroke-linecap:round;stroke-linejoin:miter;stroke-miterlimit:4;stroke-dasharray:none;stroke-opacity:1"
     d="M 86.181333,1 H 66.255375 v 70.13937 h 19.925958"
     id="path9751"
     inkscape:export-filename="T:\hdl\containers\doc\img\icon.png"
     inkscape:export-xdpi="266.47906"
     inkscape:export-ydpi="266.47906" />
  <path
     style="fill:none;stroke:#37342d;stroke-width:2;stroke-linecap:round;stroke-linejoin:miter;stroke-miterlimit:4;stroke-dasharray:none;stroke-opacity:1"
     d="M 77.126019,6.82274 H 71.94527 v 7.83754"
     id="path10238"
     inkscape:export-filename="T:\hdl\containers\doc\img\icon.png"
     inkscape:export-xdpi="266.47906"
     inkscape:export-ydpi="266.47906" />
  <path
     style="fill:none;stroke:#37342d;stroke-width:2;stroke-linecap:round;stroke-linejoin:miter;stroke-miterlimit:4;stroke-dasharray:none;stroke-opacity:1"
     d="M 77.126019,65.49608 H 71.94527 v -7.83754"
     id="path10499"
     inkscape:export-filename="T:\hdl\containers\doc\img\icon.png"
     inkscape:export-xdpi="266.47906"
     inkscape:export-ydpi="266.47906" />
  <path
     style="fill:none;stroke:#37342d;stroke-width:2;stroke-linecap:round;stroke-linejoin:miter;stroke-miterlimit:4;stroke-dasharray:none;stroke-opacity:1"
     d="M 83.450715,12.82274 V 59.58232"
     id="path10536"
     inkscape:export-filename="T:\hdl\containers\doc\img\icon.png"
     inkscape:export-xdpi="266.47906"
     inkscape:export-ydpi="266.47906" />
  <path
     style="fill:none;stroke:#37342d;stroke-width:2;stroke-linecap:round;stroke-linejoin:miter;stroke-miterlimit:4;stroke-dasharray:none;stroke-opacity:1"
     d="M 77.915654,12.75632 V 59.5159"
     id="path10949"
     inkscape:export-filename="T:\hdl\containers\doc\img\icon.png"
     inkscape:export-xdpi="266.47906"
     inkscape:export-ydpi="266.47906" />
</svg>
